inDegrees=no
num_controls=7
num_derivatives=13
num_iterations=62
num_multipliers=7
num_parameters=0
num_slacks=7
num_states=26
objective=0.449219
objective_accelerations=0.050477
objective_balance=0.006618
objective_effort=0.036468
objective_height=0.350713
objective_ligament=0.004943
solver_duration=871.900064
status=Solve_Succeeded
success=true
DataType=double
version=3
OpenSimVersion=4.5
endheader
time	/jointset/ground_pelvis/pelvis_tilt/value	/jointset/ground_pelvis/pelvis_tx/value	/jointset/ground_pelvis/pelvis_ty/value	/jointset/hip_l/hip_flexion_l/value	/jointset/hip_l/hip_adduction_l/value	/jointset/hip_l/hip_rotation_l/value	/jointset/back/lumbar_extension/value	/jointset/patellofemoral_l/patellar_flexion_l/value	/jointset/knee_l/knee_flexion_l/value	/jointset/knee_l/knee_adduction_l/value	/jointset/knee_l/knee_rotation_l/value	/jointset/ankle_l/ankle_angle_l/value	/jointset/subtalar_l/subtalar_angle_l/value	/jointset/ground_pelvis/pelvis_tilt/speed	/jointset/ground_pelvis/pelvis_tx/speed	/jointset/ground_pelvis/pelvis_ty/speed	/jointset/hip_l/hip_flexion_l/speed	/jointset/hip_l/hip_adduction_l/speed	/jointset/hip_l/hip_rotation_l/speed	/jointset/back/lumbar_extension/speed	/jointset/patellofemoral_l/patellar_flexion_l/speed	/jointset/knee_l/knee_flexion_l/speed	/jointset/knee_l/knee_adduction_l/speed	/jointset/knee_l/knee_rotation_l/speed	/jointset/ankle_l/ankle_angle_l/speed	/jointset/subtalar_l/subtalar_angle_l/speed	/forceset/tau_hip_flexion_l	/forceset/tau_hip_adduction_l	/forceset/tau_hip_rotation_l	/forceset/tau_knee_flexion_l	/forceset/tau_ankle_angle_l	/forceset/tau_subtalar_angle_l	/forceset/tau_lumbar_extension	lambda_cid13_p0	lambda_cid13_p1	lambda_cid13_p2	lambda_cid13_p3	lambda_cid13_p4	lambda_cid13_p5	lambda_cid14_p0	/jointset/ground_pelvis/pelvis_tilt/accel	/jointset/ground_pelvis/pelvis_tx/accel	/jointset/ground_pelvis/pelvis_ty/accel	/jointset/hip_l/hip_flexion_l/accel	/jointset/hip_l/hip_adduction_l/accel	/jointset/hip_l/hip_rotation_l/accel	/jointset/back/lumbar_extension/accel	/jointset/patellofemoral_l/patellar_flexion_l/accel	/jointset/knee_l/knee_flexion_l/accel	/jointset/knee_l/knee_adduction_l/accel	/jointset/knee_l/knee_rotation_l/accel	/jointset/ankle_l/ankle_angle_l/accel	/jointset/subtalar_l/subtalar_angle_l/accel	gamma_cid13_p0	gamma_cid13_p1	gamma_cid13_p2	gamma_cid13_p3	gamma_cid13_p4	gamma_cid13_p5	gamma_cid14_p0
0	-0.1580571134330317	0.05779009420328091	0.8979286890595369	0.3774924667018715	-0.2601473461344714	-0.2556465163642639	-0.01265067647494873	0.03223648243719349	0.03223648243721463	-0.1745326723814414	0.157997457923547	-0.04231377076293093	-0.01047352595343777	0	0	0	0	0	0	0	0	0	0	0	0	0	0.1390846373298241	-0.02174673436966515	-0.04501757149455647	-0.2760245538470953	0.2683307295932563	-0.08299379366815808	-0.08894868071249272	42.45879383608318	21.75575510394799	3.95828898396341	10.86389753080736	-585.8796791998273	-30.35624546126689	-38.5648331766246	-3.9761684096818	-2.468790977491652	-1.146264176542829	12.85382798208477	-1.275001208690705	3.032755482141059	-6.389924228330203	9.589382055187103	9.589382055187958	0.008677013948571803	0.2616176043839374	0.7895424826812331	-1.1198876023877	3.284602039117213e-08	1.444285213367481e-07	1.106570322502741e-07	-9.681378473819686e-08	4.376389007333724e-07	8.277952825300349e-08	-1.696193520120933e-08
0.01	-0.1582508402120839	0.05767270191304776	0.8978731995428243	0.3781143586725924	-0.2602096588270097	-0.2554958577425009	-0.01296545961347101	0.03270207887190362	0.03270207887198669	-0.1745327113751235	0.1580070606617752	-0.04227207993646222	-0.0105275569868402	-0.03872994758223218	-0.02291055542402554	-0.01100021422641266	0.1232612876586837	-0.01227521953515386	0.02995192725175317	-0.06199132034315854	0.09239801148409839	0.09239801148409962	0.0001552672515323113	0.001864843098466228	0.008788878413394624	-0.0105149927502503	0.14436646892407	-0.03258970967090184	-0.04788094969050936	-0.296700748144188	0.3051945514167057	-0.08208454834209218	-0.08999206487571899	54.35985405622641	19.66273137362113	3.851466077810359	-1.957184799820136	-589.6359336019683	-35.81155951700467	-38.57870923516934	-3.819115103609253	-2.117021794967727	-1.062159150118903	11.89470373780805	-1.175712953651785	2.949427110808777	-5.958939832663542	8.956822767326974	8.956822767326827	0.04344140154186479	0.1405491862352976	0.9911748621294161	-0.9736599341284283	-3.041360631473838e-08	1.500380619736101e-07	1.193297508609226e-07	-1.163927139120857e-08	7.083647110008295e-08	4.898919458015232e-08	-1.754897934984537e-08
0.02	-0.1588314079011935	0.05734323727455273	0.897710656062962	0.3799353484359009	-0.2603891098404359	-0.2550510766953912	-0.01387119673449926	0.03407001783599484	0.03407001783600794	-0.1745262997366169	0.1580336381355949	-0.042128977457565	-0.01067800891230305	-0.07736818200904508	-0.04241446965237598	-0.02141079262993373	0.2398195585192993	-0.02342766417925557	0.05882448506817252	-0.1181907965004981	0.1804685058604134	0.1804685058604135	0.00129012733452774	0.003394947143223486	0.02028233048521494	-0.01928417841188421	0.1496483005182818	-0.04343268497217638	-0.05074432788708608	-0.3173769424412166	0.3420583732401344	-0.08117530301605934	-0.09103544903895733	66.34153758250694	17.55496186335105	3.74771682641789	-14.90914092218358	-592.1823671864405	-41.16200889027336	-38.61884297058538	-3.957825778597557	-1.787462738356896	-1.028337011964378	11.51322462247136	-1.050446230478717	2.816881595074282	-5.231555391166272	8.723878633630342	8.723878633630722	0.2045955802442671	0.1946697936419723	1.33045721436645	-0.7707261846628757	-9.36732330206489e-08	1.556476026104721e-07	1.280024694715711e-07	7.353524195577973e-08	-2.959659585332065e-07	1.519886090730115e-08	-1.813602349848141e-08
0.03	-0.1597955904100481	0.05682986816667748	0.8974459515082902	0.3828960272616157	-0.2606760296601651	-0.2543227034036999	-0.01531692170535955	0.03630212931380381	0.03630212931375133	-0.1745057573579571	0.1580751282934953	-0.04186313270240409	-0.01091032533168613	-0.1151815871647813	-0.06027785579274087	-0.031525327919525	0.3518881242051497	-0.0339339294756649	0.08669048237274715	-0.1707221223288317	0.2657043791421176	0.2657043791421067	0.00274579279421683	0.004970392004290934	0.03275306968344679	-0.027189677295839	0.1397889433135273	-0.03757996415497381	-0.04857094356322914	-0.3030633348201601	0.3217360306732477	-0.0791397425795745	-0.08392880891760694	59.92013871348895	17.63628983854918	3.916329621647505	-10.33332814977548	-591.2461754136527	-39.53412181111023	-38.68317361450254	-3.650092671589134	-1.788537080967747	-1.002353904984196	10.98944918046445	-1.047387107056369	2.747489807613036	-5.229109876800421	8.386033722033675	8.386033722031828	0.1052057414444772	0.1490649780116986	1.185343045187198	-0.802085244377655	-9.357276282832935e-08	1.301494717779968e-07	1.522659128528233e-07	6.824509585552183e-08	-3.371083574121974e-07	1.699193480931134e-08	-2.396150782793899e-08
0.04	-0.1611293059279823	0.05613731309158072	0.8970802331772163	0.3869645470719397	-0.2610673462184218	-0.253320463937072	-0.01728099767413864	0.03937911793367099	0.03937911793367885	-0.1744728275822493	0.1581343895292762	-0.04147658840073383	-0.01122202144073309	-0.1512747838215706	-0.07825166309667651	-0.04161354791038879	0.4613877554439174	-0.04430701188546651	0.1135977200558732	-0.2218609960824941	0.3494439342875343	0.3494439342875058	0.003767606758417965	0.00694916269224278	0.0444222397870979	-0.03516011634444001	0.1299295861087323	-0.03172724333774568	-0.04639755923863693	-0.2887497271992269	0.3014136881063593	-0.07710418214307636	-0.07682216879630778	53.5725291740687	17.70897281414003	4.081440833492096	-5.891562109041701	-589.2142370952743	-37.80413572707309	-38.77072626993973	-3.613784078808155	-1.809546971070965	-1.023073952218897	10.99943773305462	-1.023809653157491	2.625129670784567	-4.953064976231878	8.424615006372735	8.424615006371804	0.1178252811460194	0.2753349590188576	1.170143395450273	-0.7837142175924434	-9.216589888553081e-08	1.040099456574939e-07	1.768508144767684e-07	6.108969904501144e-08	-3.715361164818213e-07	1.951868721801971e-08	-2.98950012332898e-08
0.05	-0.1628166736491507	0.05526604943013381	0.8966137514253646	0.392113913643241	-0.2615610855277763	-0.2520529365585759	-0.01974691227020181	0.0432842321609444	0.04328423216094564	-0.1744311332624855	0.1582139153355886	-0.04097603541763264	-0.01161283838563656	-0.1859991751335512	-0.09585873836152189	-0.05167202115278336	0.5678516194575568	-0.05436447833696312	0.1398615891568367	-0.2708777511236409	0.4311123692167584	0.4311123692167235	0.004544254378483424	0.00884572632829635	0.05567489933252982	-0.04293583510989642	0.1233863035216189	-0.02984221937681123	-0.04549741286831946	-0.2839438704057407	0.2964431643815163	-0.07556238951233245	-0.07137068811680089	52.1374191625349	17.2760448514996	4.167142217964799	-6.059466933038634	-588.3994899073388	-37.66316884809964	-38.87995980415133	-3.371833986849508	-1.714926019195099	-0.9956913996266632	10.37475734180634	-0.9852754750579701	2.620063411015402	-4.809354966793984	7.967982470257958	7.967982470257637	0.05356460322855012	0.1302500992613962	1.100804039244533	-0.7644205683808083	-1.216628883646587e-07	1.464217936064083e-07	2.24502556368704e-07	8.497317790759213e-08	-4.636714819302392e-07	1.748926247322651e-08	-3.636196347583685e-08
0.06	-0.1648452987493398	0.05422298737303782	0.8960469934632143	0.3983088981759463	-0.262153111568426	-0.250524160912827	-0.02268966925642378	0.04799203568432904	0.04799203568433864	-0.1743824764463802	0.1583090933849564	-0.04036336047804815	-0.01207939649066726	-0.2195262596237962	-0.1126113422264941	-0.06166878997012428	0.6705113477227019	-0.06396435814497614	0.1658473735083319	-0.317229474114294	0.5099817935084042	0.5099817935083668	0.005160106030206466	0.01007961129885219	0.06684663108415226	-0.05030834836970373	0.1168430209347103	-0.02795719541583016	-0.04459726649784754	-0.2791380136121381	0.291472640656733	-0.07402059688153184	-0.06591920743719303	50.76675945614399	16.83457115445384	4.251080085314075	-6.349979142997298	-586.6288978684097	-37.42913110873506	-39.00862539588461	-3.374322714461094	-1.638652691096263	-1.010733067208174	10.23861058335558	-0.9322923244609975	2.569512720890938	-4.420058566133092	7.864812878856974	7.864812878856838	0.08566608747707653	0.1427992259192972	1.153957836688372	-0.703073116462847	-1.524610927247097e-07	1.917200152003507e-07	2.731255336403444e-07	1.101635567985135e-07	-5.582366413314484e-07	1.526799869039115e-08	-4.285138756416058e-08
0.07000000000000001	-0.1672034728407271	0.05301616835752217	0.8953803258560769	0.4055135155902561	-0.2628384374351558	-0.2487385718285602	-0.02608333231645662	0.0534765537144394	0.05347655371447659	-0.1743275848011616	0.1584154896642835	-0.03963915165302354	-0.0126172070375969	-0.251885414314176	-0.1286562852979656	-0.07167091262271648	0.7698859760219048	-0.07298612186478838	0.1910608474892053	-0.3611789019860427	0.5865900353346485	0.5865900353346053	0.00586464973700102	0.01128406695826904	0.07798096703984833	-0.05714861110383479	0.1093654043184672	-0.02521453446152389	-0.0434471286335568	-0.2727609683195297	0.2834620799928032	-0.07220863440730259	-0.06005250894116961	48.40971302585231	16.42899804192358	4.351536210791079	-5.571526161932439	-584.8458384940241	-36.95593146088957	-39.15418350857954	-3.133248352287777	-1.572966440127484	-0.9959918326732409	9.707945506233973	-0.8699490138247891	2.465785926134191	-4.333749511539238	7.509071906031561	7.509071906030869	0.06986755129264985	0.1218945033216348	1.091037801790881	-0.658790638987118	-1.430866066353266e-07	1.780936205872245e-07	2.359317124715898e-07	1.111940184383102e-07	-5.841202093537479e-07	3.607276349163778e-08	-3.685918448480709e-08
0.08	-0.1698785457802136	0.05165178964630113	0.8946134290287369	0.4136960905981663	-0.263610547062694	-0.2467071437665882	-0.02990676257797115	0.05971720257713922	0.05971720257714704	-0.1742642439109784	0.1585364556536304	-0.0388040262030816	-0.01322027776928817	-0.2829060292429856	-0.1441232813675737	-0.08171463401063946	0.8661028664423925	-0.08132111030793178	0.215015169048032	-0.4031829144115217	0.6612079600218195	0.6612079600217693	0.006849955004250886	0.01299355331242932	0.08902995606676459	-0.06336038532193299	0.1018877877022025	-0.02247187350729251	-0.04229699076945857	-0.2663839230269859	0.2754515193288071	-0.07039667193315845	-0.05418581044508707	46.10948610315198	16.01782412233968	4.447920214943972	-4.905305962413196	-582.2217152867943	-36.39805428183831	-39.31440336618842	-3.10661476214715	-1.523063290723519	-1.019052814274338	9.607063007612398	-0.7949372691274128	2.317682236481617	-4.030975476879137	7.466749451042231	7.466749451041889	0.1418183995678005	0.2438053648679662	1.136888450932417	-0.5773754132564342	-1.311203340653349e-07	1.606656378317067e-07	1.932013236615193e-07	1.106657757393246e-07	-6.055727069645049e-07	5.836307852411549e-08	-3.006171513657119e-08
0.09	-0.1728580573216275	0.05013591699739548	0.8937457032495075	0.4228252379708506	-0.2644632881618239	-0.2444409837528297	-0.03413876007712791	0.06669325692108119	0.06669325692107791	-0.1741912223720816	0.1586754413054303	-0.03785908013026559	-0.01388310756474283	-0.3128166145843805	-0.1589231202645546	-0.09184709210069887	0.9591325876637879	-0.08919003780634008	0.2381710017668142	-0.442767296497567	0.7335361108723262	0.7335361108722777	0.007619894187509041	0.01469888201235585	0.09990378761563634	-0.06918868693002629	0.09397252747288883	-0.019964650050782	-0.04117212793076314	-0.2607588390179078	0.2686749789408034	-0.06852557811655016	-0.0478292878623226	44.18403127636613	15.53142386887509	4.537935309873451	-4.636981777959602	-580.1098800895342	-35.95425487506159	-39.48677780119228	-2.906333596110637	-1.439202842031243	-1.012949307447232	9.061808562052546	-0.7773261039120097	2.307631733778594	-3.854776235784853	7.045834120379681	7.045834120380402	0.0244506260832273	0.1181659636620245	1.054302646943347	-0.5830693835170514	-1.488744182883935e-07	1.427009302808729e-07	2.601004712184393e-07	1.193364160662436e-07	-6.332388400518748e-07	2.298658332412756e-08	-4.190437221234554e-08
